<mxfile host="Electron" agent="Mozilla/5.0 (Windows NT 10.0; Win64; x64) AppleWebKit/537.36 (KHTML, like Gecko) draw.io/22.1.2 Chrome/114.0.5735.289 Electron/25.9.4 Safari/537.36" modified="2024-08-30T12:33:21.265Z" version="22.1.2" etag="nfrbofTgunKysCosfY60" type="device">
  <diagram id="hWm8jpYxLGWLdG28hJpR" name="Страница — 1">
    <mxGraphModel dx="784" dy="537" grid="1" gridSize="10" guides="1" tooltips="1" connect="1" arrows="1" fold="1" page="1" pageScale="1" pageWidth="827" pageHeight="1169" math="0" shadow="0">
      <root>
        <mxCell id="0" />
        <mxCell id="1" parent="0" />
        <mxCell id="7v1A9Dm_qD9iuDS3kqmu-100" value="" style="rounded=0;whiteSpace=wrap;html=1;fillColor=none;strokeColor=#00FF80;dashed=1;" parent="1" vertex="1">
          <mxGeometry x="80" y="1440" width="230" height="90" as="geometry" />
        </mxCell>
        <mxCell id="7v1A9Dm_qD9iuDS3kqmu-78" value="" style="rounded=0;whiteSpace=wrap;html=1;fillColor=none;strokeColor=#b85450;dashed=1;" parent="1" vertex="1">
          <mxGeometry x="80" y="853" width="660" height="107" as="geometry" />
        </mxCell>
        <mxCell id="7v1A9Dm_qD9iuDS3kqmu-1" value="" style="shape=umlLifeline;perimeter=lifelinePerimeter;whiteSpace=wrap;html=1;container=1;dropTarget=0;collapsible=0;recursiveResize=0;outlineConnect=0;portConstraint=eastwest;newEdgeStyle={&quot;curved&quot;:0,&quot;rounded&quot;:0};participant=umlActor;" parent="1" vertex="1">
          <mxGeometry x="125" y="550" width="25" height="1510" as="geometry" />
        </mxCell>
        <mxCell id="7v1A9Dm_qD9iuDS3kqmu-4" value="" style="html=1;points=[[0,0,0,0,5],[0,1,0,0,-5],[1,0,0,0,5],[1,1,0,0,-5]];perimeter=orthogonalPerimeter;outlineConnect=0;targetShapes=umlLifeline;portConstraint=eastwest;newEdgeStyle={&quot;curved&quot;:0,&quot;rounded&quot;:0};" parent="7v1A9Dm_qD9iuDS3kqmu-1" vertex="1">
          <mxGeometry x="7" y="70" width="10" height="40" as="geometry" />
        </mxCell>
        <mxCell id="7v1A9Dm_qD9iuDS3kqmu-59" value="" style="html=1;points=[[0,0,0,0,5],[0,1,0,0,-5],[1,0,0,0,5],[1,1,0,0,-5]];perimeter=orthogonalPerimeter;outlineConnect=0;targetShapes=umlLifeline;portConstraint=eastwest;newEdgeStyle={&quot;curved&quot;:0,&quot;rounded&quot;:0};" parent="7v1A9Dm_qD9iuDS3kqmu-1" vertex="1">
          <mxGeometry x="5" y="330" width="10" height="20" as="geometry" />
        </mxCell>
        <mxCell id="7v1A9Dm_qD9iuDS3kqmu-92" value="" style="html=1;points=[[0,0,0,0,5],[0,1,0,0,-5],[1,0,0,0,5],[1,1,0,0,-5]];perimeter=orthogonalPerimeter;outlineConnect=0;targetShapes=umlLifeline;portConstraint=eastwest;newEdgeStyle={&quot;curved&quot;:0,&quot;rounded&quot;:0};" parent="7v1A9Dm_qD9iuDS3kqmu-1" vertex="1">
          <mxGeometry x="7" y="860" width="10" height="620" as="geometry" />
        </mxCell>
        <mxCell id="7v1A9Dm_qD9iuDS3kqmu-2" value="MAIN" style="shape=umlLifeline;perimeter=lifelinePerimeter;whiteSpace=wrap;html=1;container=1;dropTarget=0;collapsible=0;recursiveResize=0;outlineConnect=0;portConstraint=eastwest;newEdgeStyle={&quot;curved&quot;:0,&quot;rounded&quot;:0};fillColor=#d5e8d4;strokeColor=#82b366;" parent="1" vertex="1">
          <mxGeometry x="217" y="110" width="100" height="1950" as="geometry" />
        </mxCell>
        <mxCell id="7v1A9Dm_qD9iuDS3kqmu-10" value="" style="html=1;points=[[0,0,0,0,5],[0,1,0,0,-5],[1,0,0,0,5],[1,1,0,0,-5]];perimeter=orthogonalPerimeter;outlineConnect=0;targetShapes=umlLifeline;portConstraint=eastwest;newEdgeStyle={&quot;curved&quot;:0,&quot;rounded&quot;:0};fillColor=#d5e8d4;strokeColor=#82b366;" parent="7v1A9Dm_qD9iuDS3kqmu-2" vertex="1">
          <mxGeometry x="45" y="80" width="10" height="710" as="geometry" />
        </mxCell>
        <mxCell id="7v1A9Dm_qD9iuDS3kqmu-56" value="" style="shape=umlDestroy;whiteSpace=wrap;html=1;strokeWidth=3;targetShapes=umlLifeline;fillColor=#d5e8d4;strokeColor=#82b366;" parent="7v1A9Dm_qD9iuDS3kqmu-2" vertex="1">
          <mxGeometry x="35" y="800" width="30" height="30" as="geometry" />
        </mxCell>
        <mxCell id="7v1A9Dm_qD9iuDS3kqmu-63" value="" style="html=1;points=[[0,0,0,0,5],[0,1,0,0,-5],[1,0,0,0,5],[1,1,0,0,-5]];perimeter=orthogonalPerimeter;outlineConnect=0;targetShapes=umlLifeline;portConstraint=eastwest;newEdgeStyle={&quot;curved&quot;:0,&quot;rounded&quot;:0};fillColor=#d5e8d4;strokeColor=#82b366;" parent="7v1A9Dm_qD9iuDS3kqmu-2" vertex="1">
          <mxGeometry x="45" y="870" width="10" height="1050" as="geometry" />
        </mxCell>
        <mxCell id="7v1A9Dm_qD9iuDS3kqmu-93" value="notify authorized" style="html=1;verticalAlign=bottom;endArrow=open;curved=0;rounded=0;endFill=0;" parent="7v1A9Dm_qD9iuDS3kqmu-2" edge="1">
          <mxGeometry width="80" relative="1" as="geometry">
            <mxPoint x="45" y="1310" as="sourcePoint" />
            <mxPoint x="-75" y="1310" as="targetPoint" />
          </mxGeometry>
        </mxCell>
        <mxCell id="7v1A9Dm_qD9iuDS3kqmu-3" value="CRYPTO" style="shape=umlLifeline;perimeter=lifelinePerimeter;whiteSpace=wrap;html=1;container=1;dropTarget=0;collapsible=0;recursiveResize=0;outlineConnect=0;portConstraint=eastwest;newEdgeStyle={&quot;curved&quot;:0,&quot;rounded&quot;:0};fillColor=#dae8fc;strokeColor=#6c8ebf;" parent="1" vertex="1">
          <mxGeometry x="349" y="110" width="101" height="1950" as="geometry" />
        </mxCell>
        <mxCell id="7v1A9Dm_qD9iuDS3kqmu-16" value="" style="html=1;points=[[0,0,0,0,5],[0,1,0,0,-5],[1,0,0,0,5],[1,1,0,0,-5]];perimeter=orthogonalPerimeter;outlineConnect=0;targetShapes=umlLifeline;portConstraint=eastwest;newEdgeStyle={&quot;curved&quot;:0,&quot;rounded&quot;:0};fillColor=#dae8fc;strokeColor=#6c8ebf;" parent="7v1A9Dm_qD9iuDS3kqmu-3" vertex="1">
          <mxGeometry x="45" y="79" width="10" height="21" as="geometry" />
        </mxCell>
        <mxCell id="7v1A9Dm_qD9iuDS3kqmu-37" value="" style="html=1;points=[[0,0,0,0,5],[0,1,0,0,-5],[1,0,0,0,5],[1,1,0,0,-5]];perimeter=orthogonalPerimeter;outlineConnect=0;targetShapes=umlLifeline;portConstraint=eastwest;newEdgeStyle={&quot;curved&quot;:0,&quot;rounded&quot;:0};fillColor=#dae8fc;strokeColor=#6c8ebf;" parent="7v1A9Dm_qD9iuDS3kqmu-3" vertex="1">
          <mxGeometry x="45" y="390" width="10" height="40" as="geometry" />
        </mxCell>
        <mxCell id="7v1A9Dm_qD9iuDS3kqmu-45" value="" style="html=1;points=[[0,0,0,0,5],[0,1,0,0,-5],[1,0,0,0,5],[1,1,0,0,-5]];perimeter=orthogonalPerimeter;outlineConnect=0;targetShapes=umlLifeline;portConstraint=eastwest;newEdgeStyle={&quot;curved&quot;:0,&quot;rounded&quot;:0};fillColor=#dae8fc;strokeColor=#6c8ebf;" parent="7v1A9Dm_qD9iuDS3kqmu-3" vertex="1">
          <mxGeometry x="45" y="570" width="10" height="100" as="geometry" />
        </mxCell>
        <mxCell id="7v1A9Dm_qD9iuDS3kqmu-46" value="generate keystream" style="html=1;verticalAlign=bottom;endArrow=block;curved=0;rounded=0;endFill=1;" parent="7v1A9Dm_qD9iuDS3kqmu-3" edge="1">
          <mxGeometry width="80" relative="1" as="geometry">
            <mxPoint x="-76" y="580" as="sourcePoint" />
            <mxPoint x="44" y="580" as="targetPoint" />
          </mxGeometry>
        </mxCell>
        <mxCell id="7v1A9Dm_qD9iuDS3kqmu-47" value="ok" style="html=1;verticalAlign=bottom;endArrow=block;curved=0;rounded=0;endFill=1;dashed=1;" parent="7v1A9Dm_qD9iuDS3kqmu-3" edge="1">
          <mxGeometry width="80" relative="1" as="geometry">
            <mxPoint x="44" y="600" as="sourcePoint" />
            <mxPoint x="-76" y="600" as="targetPoint" />
          </mxGeometry>
        </mxCell>
        <mxCell id="7v1A9Dm_qD9iuDS3kqmu-64" value="" style="html=1;points=[[0,0,0,0,5],[0,1,0,0,-5],[1,0,0,0,5],[1,1,0,0,-5]];perimeter=orthogonalPerimeter;outlineConnect=0;targetShapes=umlLifeline;portConstraint=eastwest;newEdgeStyle={&quot;curved&quot;:0,&quot;rounded&quot;:0};fillColor=#dae8fc;strokeColor=#6c8ebf;" parent="7v1A9Dm_qD9iuDS3kqmu-3" vertex="1">
          <mxGeometry x="45" y="870" width="10" height="50" as="geometry" />
        </mxCell>
        <mxCell id="7v1A9Dm_qD9iuDS3kqmu-72" value="" style="html=1;points=[[0,0,0,0,5],[0,1,0,0,-5],[1,0,0,0,5],[1,1,0,0,-5]];perimeter=orthogonalPerimeter;outlineConnect=0;targetShapes=umlLifeline;portConstraint=eastwest;newEdgeStyle={&quot;curved&quot;:0,&quot;rounded&quot;:0};fillColor=#dae8fc;strokeColor=#6c8ebf;" parent="7v1A9Dm_qD9iuDS3kqmu-3" vertex="1">
          <mxGeometry x="45" y="991" width="10" height="50" as="geometry" />
        </mxCell>
        <mxCell id="7v1A9Dm_qD9iuDS3kqmu-73" value="encrypt salt" style="html=1;verticalAlign=bottom;endArrow=block;curved=0;rounded=0;endFill=1;" parent="7v1A9Dm_qD9iuDS3kqmu-3" edge="1">
          <mxGeometry width="80" relative="1" as="geometry">
            <mxPoint x="-76" y="1010.29" as="sourcePoint" />
            <mxPoint x="44" y="1010.29" as="targetPoint" />
          </mxGeometry>
        </mxCell>
        <mxCell id="7v1A9Dm_qD9iuDS3kqmu-74" value="ok" style="html=1;verticalAlign=bottom;endArrow=block;curved=0;rounded=0;endFill=1;dashed=1;" parent="7v1A9Dm_qD9iuDS3kqmu-3" edge="1">
          <mxGeometry width="80" relative="1" as="geometry">
            <mxPoint x="44" y="1030.29" as="sourcePoint" />
            <mxPoint x="-76" y="1030.29" as="targetPoint" />
          </mxGeometry>
        </mxCell>
        <mxCell id="7v1A9Dm_qD9iuDS3kqmu-80" value="" style="shape=umlDestroy;whiteSpace=wrap;html=1;strokeWidth=3;targetShapes=umlLifeline;fillColor=#dae8fc;strokeColor=#6c8ebf;" parent="7v1A9Dm_qD9iuDS3kqmu-3" vertex="1">
          <mxGeometry x="35" y="800" width="30" height="30" as="geometry" />
        </mxCell>
        <mxCell id="7v1A9Dm_qD9iuDS3kqmu-82" value="" style="html=1;points=[[0,0,0,0,5],[0,1,0,0,-5],[1,0,0,0,5],[1,1,0,0,-5]];perimeter=orthogonalPerimeter;outlineConnect=0;targetShapes=umlLifeline;portConstraint=eastwest;newEdgeStyle={&quot;curved&quot;:0,&quot;rounded&quot;:0};fillColor=#dae8fc;strokeColor=#6c8ebf;" parent="7v1A9Dm_qD9iuDS3kqmu-3" vertex="1">
          <mxGeometry x="46" y="1525.45" width="10" height="50" as="geometry" />
        </mxCell>
        <mxCell id="7v1A9Dm_qD9iuDS3kqmu-131" value="" style="html=1;points=[[0,0,0,0,5],[0,1,0,0,-5],[1,0,0,0,5],[1,1,0,0,-5]];perimeter=orthogonalPerimeter;outlineConnect=0;targetShapes=umlLifeline;portConstraint=eastwest;newEdgeStyle={&quot;curved&quot;:0,&quot;rounded&quot;:0};fillColor=#dae8fc;strokeColor=#6c8ebf;" parent="7v1A9Dm_qD9iuDS3kqmu-3" vertex="1">
          <mxGeometry x="45" y="1175.45" width="10" height="50" as="geometry" />
        </mxCell>
        <mxCell id="7v1A9Dm_qD9iuDS3kqmu-132" value="ok" style="html=1;verticalAlign=bottom;endArrow=block;curved=0;rounded=0;endFill=1;jumpStyle=arc;align=center;sourcePerimeterSpacing=0;dashed=1;" parent="7v1A9Dm_qD9iuDS3kqmu-3" edge="1">
          <mxGeometry x="-0.6766" width="80" relative="1" as="geometry">
            <mxPoint x="310.5" y="1150.45" as="sourcePoint" />
            <mxPoint x="-76" y="1150.45" as="targetPoint" />
            <mxPoint as="offset" />
          </mxGeometry>
        </mxCell>
        <mxCell id="7v1A9Dm_qD9iuDS3kqmu-133" value="decrypt data" style="html=1;verticalAlign=bottom;endArrow=block;curved=0;rounded=0;endFill=1;" parent="7v1A9Dm_qD9iuDS3kqmu-3" edge="1">
          <mxGeometry width="80" relative="1" as="geometry">
            <mxPoint x="-76" y="1190.45" as="sourcePoint" />
            <mxPoint x="44" y="1190.45" as="targetPoint" />
          </mxGeometry>
        </mxCell>
        <mxCell id="7v1A9Dm_qD9iuDS3kqmu-134" value="ok" style="html=1;verticalAlign=bottom;endArrow=block;curved=0;rounded=0;endFill=1;dashed=1;" parent="7v1A9Dm_qD9iuDS3kqmu-3" edge="1">
          <mxGeometry width="80" relative="1" as="geometry">
            <mxPoint x="43" y="1210.45" as="sourcePoint" />
            <mxPoint x="-77" y="1210.45" as="targetPoint" />
          </mxGeometry>
        </mxCell>
        <mxCell id="7v1A9Dm_qD9iuDS3kqmu-135" value="set decrypted data" style="html=1;verticalAlign=bottom;endArrow=block;curved=0;rounded=0;endFill=1;jumpStyle=arc;align=center;sourcePerimeterSpacing=0;" parent="7v1A9Dm_qD9iuDS3kqmu-3" edge="1">
          <mxGeometry x="0.6766" width="80" relative="1" as="geometry">
            <mxPoint x="-75" y="1251.45" as="sourcePoint" />
            <mxPoint x="311.5" y="1251.45" as="targetPoint" />
            <mxPoint as="offset" />
          </mxGeometry>
        </mxCell>
        <mxCell id="7v1A9Dm_qD9iuDS3kqmu-136" value="ok" style="html=1;verticalAlign=bottom;endArrow=block;curved=0;rounded=0;endFill=1;jumpStyle=arc;align=center;sourcePerimeterSpacing=0;dashed=1;" parent="7v1A9Dm_qD9iuDS3kqmu-3" edge="1">
          <mxGeometry x="-0.6766" width="80" relative="1" as="geometry">
            <mxPoint x="310.5" y="1271.45" as="sourcePoint" />
            <mxPoint x="-76" y="1271.45" as="targetPoint" />
            <mxPoint as="offset" />
          </mxGeometry>
        </mxCell>
        <mxCell id="7v1A9Dm_qD9iuDS3kqmu-137" value="get encrypted data" style="html=1;verticalAlign=bottom;endArrow=block;curved=0;rounded=0;endFill=1;jumpStyle=arc;align=center;sourcePerimeterSpacing=0;" parent="7v1A9Dm_qD9iuDS3kqmu-3" edge="1">
          <mxGeometry x="0.6766" width="80" relative="1" as="geometry">
            <mxPoint x="-76" y="1130" as="sourcePoint" />
            <mxPoint x="310.5" y="1130" as="targetPoint" />
            <mxPoint as="offset" />
          </mxGeometry>
        </mxCell>
        <mxCell id="7v1A9Dm_qD9iuDS3kqmu-144" value="" style="html=1;points=[[0,0,0,0,5],[0,1,0,0,-5],[1,0,0,0,5],[1,1,0,0,-5]];perimeter=orthogonalPerimeter;outlineConnect=0;targetShapes=umlLifeline;portConstraint=eastwest;newEdgeStyle={&quot;curved&quot;:0,&quot;rounded&quot;:0};fillColor=#dae8fc;strokeColor=#6c8ebf;" parent="7v1A9Dm_qD9iuDS3kqmu-3" vertex="1">
          <mxGeometry x="45" y="1880" width="10" height="20" as="geometry" />
        </mxCell>
        <mxCell id="7v1A9Dm_qD9iuDS3kqmu-13" value="ask password" style="html=1;verticalAlign=bottom;endArrow=block;curved=0;rounded=0;" parent="1" edge="1">
          <mxGeometry width="80" relative="1" as="geometry">
            <mxPoint x="262" y="630" as="sourcePoint" />
            <mxPoint x="142" y="630" as="targetPoint" />
          </mxGeometry>
        </mxCell>
        <mxCell id="7v1A9Dm_qD9iuDS3kqmu-15" value="DB driver&lt;div&gt;&lt;span style=&quot;background-color: initial;&quot;&gt;[ on-disk ]&lt;/span&gt;&lt;/div&gt;" style="shape=umlLifeline;perimeter=lifelinePerimeter;whiteSpace=wrap;html=1;container=1;dropTarget=0;collapsible=0;recursiveResize=0;outlineConnect=0;portConstraint=eastwest;newEdgeStyle={&quot;curved&quot;:0,&quot;rounded&quot;:0};fillColor=#fff2cc;strokeColor=#d6b656;" parent="1" vertex="1">
          <mxGeometry x="483" y="110" width="100" height="310" as="geometry" />
        </mxCell>
        <mxCell id="7v1A9Dm_qD9iuDS3kqmu-19" value="" style="html=1;points=[[0,0,0,0,5],[0,1,0,0,-5],[1,0,0,0,5],[1,1,0,0,-5]];perimeter=orthogonalPerimeter;outlineConnect=0;targetShapes=umlLifeline;portConstraint=eastwest;newEdgeStyle={&quot;curved&quot;:0,&quot;rounded&quot;:0};fillColor=#fff2cc;strokeColor=#d6b656;" parent="7v1A9Dm_qD9iuDS3kqmu-15" vertex="1">
          <mxGeometry x="45" y="117" width="10" height="163" as="geometry" />
        </mxCell>
        <mxCell id="7v1A9Dm_qD9iuDS3kqmu-17" value="initialize" style="html=1;verticalAlign=bottom;endArrow=open;curved=0;rounded=0;endFill=0;" parent="1" edge="1">
          <mxGeometry width="80" relative="1" as="geometry">
            <mxPoint x="273" y="199.57999999999998" as="sourcePoint" />
            <mxPoint x="393" y="199.57999999999998" as="targetPoint" />
          </mxGeometry>
        </mxCell>
        <mxCell id="7v1A9Dm_qD9iuDS3kqmu-20" value="open" style="html=1;verticalAlign=bottom;endArrow=block;curved=0;rounded=0;endFill=1;jumpStyle=none;align=center;sourcePerimeterSpacing=0;" parent="1" edge="1">
          <mxGeometry x="0.501" width="80" relative="1" as="geometry">
            <mxPoint x="273" y="240" as="sourcePoint" />
            <mxPoint x="526" y="240" as="targetPoint" />
            <mxPoint as="offset" />
          </mxGeometry>
        </mxCell>
        <mxCell id="7v1A9Dm_qD9iuDS3kqmu-23" value="ok" style="html=1;verticalAlign=bottom;endArrow=block;curved=0;rounded=0;endFill=1;jumpStyle=arc;align=center;sourcePerimeterSpacing=0;dashed=1;" parent="1" edge="1">
          <mxGeometry x="-0.499" width="80" relative="1" as="geometry">
            <mxPoint x="526" y="260" as="sourcePoint" />
            <mxPoint x="273" y="260" as="targetPoint" />
            <mxPoint as="offset" />
          </mxGeometry>
        </mxCell>
        <mxCell id="7v1A9Dm_qD9iuDS3kqmu-25" value=":memory:" style="html=1;verticalAlign=bottom;endArrow=block;curved=0;rounded=0;endFill=1;jumpStyle=none;align=center;sourcePerimeterSpacing=0;" parent="1" edge="1">
          <mxGeometry x="0.502" width="80" relative="1" as="geometry">
            <mxPoint x="273" y="300" as="sourcePoint" />
            <mxPoint x="526" y="300" as="targetPoint" />
            <mxPoint as="offset" />
          </mxGeometry>
        </mxCell>
        <mxCell id="7v1A9Dm_qD9iuDS3kqmu-26" value="DB driver&lt;div&gt;&lt;span style=&quot;background-color: initial;&quot;&gt;[ in-memory ]&lt;/span&gt;&lt;/div&gt;" style="shape=umlLifeline;perimeter=lifelinePerimeter;whiteSpace=wrap;html=1;container=1;dropTarget=0;collapsible=0;recursiveResize=0;outlineConnect=0;portConstraint=eastwest;newEdgeStyle={&quot;curved&quot;:0,&quot;rounded&quot;:0};fillColor=#e3c800;strokeColor=#B09500;fontColor=#000000;" parent="1" vertex="1">
          <mxGeometry x="617" y="110" width="100" height="1950" as="geometry" />
        </mxCell>
        <mxCell id="7v1A9Dm_qD9iuDS3kqmu-27" value="" style="html=1;points=[[0,0,0,0,5],[0,1,0,0,-5],[1,0,0,0,5],[1,1,0,0,-5]];perimeter=orthogonalPerimeter;outlineConnect=0;targetShapes=umlLifeline;portConstraint=eastwest;newEdgeStyle={&quot;curved&quot;:0,&quot;rounded&quot;:0};fillColor=#e3c800;strokeColor=#B09500;fontColor=#000000;" parent="7v1A9Dm_qD9iuDS3kqmu-26" vertex="1">
          <mxGeometry x="45" y="197" width="10" height="170" as="geometry" />
        </mxCell>
        <mxCell id="7v1A9Dm_qD9iuDS3kqmu-44" value="" style="html=1;points=[[0,0,0,0,5],[0,1,0,0,-5],[1,0,0,0,5],[1,1,0,0,-5]];perimeter=orthogonalPerimeter;outlineConnect=0;targetShapes=umlLifeline;portConstraint=eastwest;newEdgeStyle={&quot;curved&quot;:0,&quot;rounded&quot;:0};fillColor=#e3c800;strokeColor=#B09500;fontColor=#000000;" parent="7v1A9Dm_qD9iuDS3kqmu-26" vertex="1">
          <mxGeometry x="45" y="440" width="10" height="50" as="geometry" />
        </mxCell>
        <mxCell id="7v1A9Dm_qD9iuDS3kqmu-69" value="" style="html=1;points=[[0,0,0,0,5],[0,1,0,0,-5],[1,0,0,0,5],[1,1,0,0,-5]];perimeter=orthogonalPerimeter;outlineConnect=0;targetShapes=umlLifeline;portConstraint=eastwest;newEdgeStyle={&quot;curved&quot;:0,&quot;rounded&quot;:0};fillColor=#e3c800;strokeColor=#B09500;fontColor=#000000;" parent="7v1A9Dm_qD9iuDS3kqmu-26" vertex="1">
          <mxGeometry x="45" y="930" width="10" height="50" as="geometry" />
        </mxCell>
        <mxCell id="7v1A9Dm_qD9iuDS3kqmu-75" value="" style="html=1;points=[[0,0,0,0,5],[0,1,0,0,-5],[1,0,0,0,5],[1,1,0,0,-5]];perimeter=orthogonalPerimeter;outlineConnect=0;targetShapes=umlLifeline;portConstraint=eastwest;newEdgeStyle={&quot;curved&quot;:0,&quot;rounded&quot;:0};fillColor=#e3c800;strokeColor=#B09500;fontColor=#000000;" parent="7v1A9Dm_qD9iuDS3kqmu-26" vertex="1">
          <mxGeometry x="45" y="1051" width="10" height="829" as="geometry" />
        </mxCell>
        <mxCell id="7v1A9Dm_qD9iuDS3kqmu-76" value="set salt" style="html=1;verticalAlign=bottom;endArrow=block;curved=0;rounded=0;endFill=1;jumpStyle=arc;align=center;sourcePerimeterSpacing=0;" parent="7v1A9Dm_qD9iuDS3kqmu-26" edge="1">
          <mxGeometry x="0.6766" width="80" relative="1" as="geometry">
            <mxPoint x="-343" y="1070.13" as="sourcePoint" />
            <mxPoint x="43.5" y="1070.13" as="targetPoint" />
            <mxPoint as="offset" />
          </mxGeometry>
        </mxCell>
        <mxCell id="7v1A9Dm_qD9iuDS3kqmu-77" value="ok" style="html=1;verticalAlign=bottom;endArrow=block;curved=0;rounded=0;endFill=1;jumpStyle=arc;align=center;sourcePerimeterSpacing=0;dashed=1;" parent="7v1A9Dm_qD9iuDS3kqmu-26" edge="1">
          <mxGeometry x="-0.6766" width="80" relative="1" as="geometry">
            <mxPoint x="42.5" y="1090.13" as="sourcePoint" />
            <mxPoint x="-344" y="1090.13" as="targetPoint" />
            <mxPoint as="offset" />
          </mxGeometry>
        </mxCell>
        <mxCell id="7v1A9Dm_qD9iuDS3kqmu-81" value="" style="shape=umlDestroy;whiteSpace=wrap;html=1;strokeWidth=3;targetShapes=umlLifeline;fillColor=#e3c800;strokeColor=#B09500;fontColor=#000000;" parent="7v1A9Dm_qD9iuDS3kqmu-26" vertex="1">
          <mxGeometry x="35" y="800" width="30" height="30" as="geometry" />
        </mxCell>
        <mxCell id="7v1A9Dm_qD9iuDS3kqmu-30" value="create" style="html=1;verticalAlign=bottom;endArrow=block;curved=0;rounded=0;endFill=1;" parent="1" edge="1">
          <mxGeometry width="80" relative="1" as="geometry">
            <mxPoint x="539" y="319" as="sourcePoint" />
            <mxPoint x="659" y="319" as="targetPoint" />
          </mxGeometry>
        </mxCell>
        <mxCell id="7v1A9Dm_qD9iuDS3kqmu-34" value="enter password" style="html=1;verticalAlign=bottom;endArrow=block;curved=0;rounded=0;dashed=1;" parent="1" edge="1">
          <mxGeometry width="80" relative="1" as="geometry">
            <mxPoint x="142" y="650" as="sourcePoint" />
            <mxPoint x="262" y="650" as="targetPoint" />
          </mxGeometry>
        </mxCell>
        <mxCell id="7v1A9Dm_qD9iuDS3kqmu-35" value="get salt" style="html=1;verticalAlign=bottom;endArrow=block;curved=0;rounded=0;endFill=1;jumpStyle=arc;align=center;sourcePerimeterSpacing=0;" parent="1" edge="1">
          <mxGeometry x="0.6766" width="80" relative="1" as="geometry">
            <mxPoint x="274" y="450" as="sourcePoint" />
            <mxPoint x="660.5" y="450" as="targetPoint" />
            <mxPoint as="offset" />
          </mxGeometry>
        </mxCell>
        <mxCell id="7v1A9Dm_qD9iuDS3kqmu-36" value="ok" style="html=1;verticalAlign=bottom;endArrow=block;curved=0;rounded=0;endFill=1;jumpStyle=arc;align=center;sourcePerimeterSpacing=0;dashed=1;" parent="1" edge="1">
          <mxGeometry x="-0.6766" width="80" relative="1" as="geometry">
            <mxPoint x="660.5" y="470" as="sourcePoint" />
            <mxPoint x="274" y="470" as="targetPoint" />
            <mxPoint as="offset" />
          </mxGeometry>
        </mxCell>
        <mxCell id="7v1A9Dm_qD9iuDS3kqmu-39" value="generate key" style="html=1;verticalAlign=bottom;endArrow=block;curved=0;rounded=0;endFill=1;" parent="1" edge="1">
          <mxGeometry width="80" relative="1" as="geometry">
            <mxPoint x="273" y="510" as="sourcePoint" />
            <mxPoint x="393" y="510" as="targetPoint" />
          </mxGeometry>
        </mxCell>
        <mxCell id="7v1A9Dm_qD9iuDS3kqmu-40" value="get nonce" style="html=1;verticalAlign=bottom;endArrow=block;curved=0;rounded=0;endFill=1;jumpStyle=arc;align=center;sourcePerimeterSpacing=0;" parent="1" edge="1">
          <mxGeometry x="0.6766" width="80" relative="1" as="geometry">
            <mxPoint x="274" y="570" as="sourcePoint" />
            <mxPoint x="660.5" y="570" as="targetPoint" />
            <mxPoint as="offset" />
          </mxGeometry>
        </mxCell>
        <mxCell id="7v1A9Dm_qD9iuDS3kqmu-41" value="ok" style="html=1;verticalAlign=bottom;endArrow=block;curved=0;rounded=0;endFill=1;jumpStyle=arc;align=center;sourcePerimeterSpacing=0;dashed=1;" parent="1" edge="1">
          <mxGeometry x="-0.6766" width="80" relative="1" as="geometry">
            <mxPoint x="659.5" y="590" as="sourcePoint" />
            <mxPoint x="273" y="590" as="targetPoint" />
            <mxPoint as="offset" />
          </mxGeometry>
        </mxCell>
        <mxCell id="7v1A9Dm_qD9iuDS3kqmu-42" value="ok" style="html=1;verticalAlign=bottom;endArrow=block;curved=0;rounded=0;endFill=1;dashed=1;" parent="1" edge="1">
          <mxGeometry width="80" relative="1" as="geometry">
            <mxPoint x="393" y="530" as="sourcePoint" />
            <mxPoint x="273" y="530" as="targetPoint" />
          </mxGeometry>
        </mxCell>
        <mxCell id="7v1A9Dm_qD9iuDS3kqmu-48" value="decrypt salt" style="html=1;verticalAlign=bottom;endArrow=block;curved=0;rounded=0;endFill=1;" parent="1" edge="1">
          <mxGeometry width="80" relative="1" as="geometry">
            <mxPoint x="273" y="749" as="sourcePoint" />
            <mxPoint x="393" y="749" as="targetPoint" />
          </mxGeometry>
        </mxCell>
        <mxCell id="7v1A9Dm_qD9iuDS3kqmu-49" value="ok" style="html=1;verticalAlign=bottom;endArrow=block;curved=0;rounded=0;endFill=1;dashed=1;" parent="1" edge="1">
          <mxGeometry width="80" relative="1" as="geometry">
            <mxPoint x="392" y="770" as="sourcePoint" />
            <mxPoint x="272" y="770" as="targetPoint" />
          </mxGeometry>
        </mxCell>
        <mxCell id="7v1A9Dm_qD9iuDS3kqmu-51" value="compare salts" style="html=1;align=left;spacingLeft=2;endArrow=block;rounded=0;edgeStyle=orthogonalEdgeStyle;curved=0;rounded=0;" parent="1" edge="1">
          <mxGeometry relative="1" as="geometry">
            <mxPoint x="272" y="810" as="sourcePoint" />
            <Array as="points">
              <mxPoint x="297" y="840" />
            </Array>
            <mxPoint x="272" y="840" as="targetPoint" />
          </mxGeometry>
        </mxCell>
        <mxCell id="7v1A9Dm_qD9iuDS3kqmu-57" value="" style="shape=umlDestroy;whiteSpace=wrap;html=1;strokeWidth=3;targetShapes=umlLifeline;" parent="1" vertex="1">
          <mxGeometry x="121" y="910" width="30" height="30" as="geometry" />
        </mxCell>
        <mxCell id="7v1A9Dm_qD9iuDS3kqmu-58" value="notify fail" style="html=1;verticalAlign=bottom;endArrow=open;curved=0;rounded=0;endFill=0;" parent="1" edge="1">
          <mxGeometry width="80" relative="1" as="geometry">
            <mxPoint x="261" y="890" as="sourcePoint" />
            <mxPoint x="141" y="890" as="targetPoint" />
          </mxGeometry>
        </mxCell>
        <mxCell id="7v1A9Dm_qD9iuDS3kqmu-65" value="generate new nonce" style="html=1;verticalAlign=bottom;endArrow=block;curved=0;rounded=0;endFill=1;" parent="1" edge="1">
          <mxGeometry width="80" relative="1" as="geometry">
            <mxPoint x="273" y="999.29" as="sourcePoint" />
            <mxPoint x="393" y="999.29" as="targetPoint" />
          </mxGeometry>
        </mxCell>
        <mxCell id="7v1A9Dm_qD9iuDS3kqmu-66" value="ok" style="html=1;verticalAlign=bottom;endArrow=block;curved=0;rounded=0;endFill=1;dashed=1;" parent="1" edge="1">
          <mxGeometry width="80" relative="1" as="geometry">
            <mxPoint x="393" y="1019.29" as="sourcePoint" />
            <mxPoint x="273" y="1019.29" as="targetPoint" />
          </mxGeometry>
        </mxCell>
        <mxCell id="7v1A9Dm_qD9iuDS3kqmu-70" value="set nonce" style="html=1;verticalAlign=bottom;endArrow=block;curved=0;rounded=0;endFill=1;jumpStyle=arc;align=center;sourcePerimeterSpacing=0;" parent="1" edge="1">
          <mxGeometry x="0.6766" width="80" relative="1" as="geometry">
            <mxPoint x="274" y="1059.13" as="sourcePoint" />
            <mxPoint x="660.5" y="1059.13" as="targetPoint" />
            <mxPoint as="offset" />
          </mxGeometry>
        </mxCell>
        <mxCell id="7v1A9Dm_qD9iuDS3kqmu-71" value="ok" style="html=1;verticalAlign=bottom;endArrow=block;curved=0;rounded=0;endFill=1;jumpStyle=arc;align=center;sourcePerimeterSpacing=0;dashed=1;" parent="1" edge="1">
          <mxGeometry x="-0.6766" width="80" relative="1" as="geometry">
            <mxPoint x="659.5" y="1079.13" as="sourcePoint" />
            <mxPoint x="273" y="1079.13" as="targetPoint" />
            <mxPoint as="offset" />
          </mxGeometry>
        </mxCell>
        <mxCell id="7v1A9Dm_qD9iuDS3kqmu-84" value="ok" style="html=1;verticalAlign=bottom;endArrow=block;curved=0;rounded=0;endFill=1;jumpStyle=arc;align=center;sourcePerimeterSpacing=0;dashed=1;" parent="1" edge="1">
          <mxGeometry x="-0.6766" width="80" relative="1" as="geometry">
            <mxPoint x="660.5" y="1610.45" as="sourcePoint" />
            <mxPoint x="274" y="1610.45" as="targetPoint" />
            <mxPoint as="offset" />
          </mxGeometry>
        </mxCell>
        <mxCell id="7v1A9Dm_qD9iuDS3kqmu-85" value="encrypt data" style="html=1;verticalAlign=bottom;endArrow=block;curved=0;rounded=0;endFill=1;" parent="1" edge="1">
          <mxGeometry width="80" relative="1" as="geometry">
            <mxPoint x="274" y="1650.45" as="sourcePoint" />
            <mxPoint x="394" y="1650.45" as="targetPoint" />
          </mxGeometry>
        </mxCell>
        <mxCell id="7v1A9Dm_qD9iuDS3kqmu-86" value="ok" style="html=1;verticalAlign=bottom;endArrow=block;curved=0;rounded=0;endFill=1;dashed=1;" parent="1" edge="1">
          <mxGeometry width="80" relative="1" as="geometry">
            <mxPoint x="394" y="1670.45" as="sourcePoint" />
            <mxPoint x="274" y="1670.45" as="targetPoint" />
          </mxGeometry>
        </mxCell>
        <mxCell id="7v1A9Dm_qD9iuDS3kqmu-87" value="set encrypted data" style="html=1;verticalAlign=bottom;endArrow=block;curved=0;rounded=0;endFill=1;jumpStyle=arc;align=center;sourcePerimeterSpacing=0;" parent="1" edge="1">
          <mxGeometry x="0.6766" width="80" relative="1" as="geometry">
            <mxPoint x="275" y="1711.45" as="sourcePoint" />
            <mxPoint x="661.5" y="1711.45" as="targetPoint" />
            <mxPoint as="offset" />
          </mxGeometry>
        </mxCell>
        <mxCell id="7v1A9Dm_qD9iuDS3kqmu-88" value="ok" style="html=1;verticalAlign=bottom;endArrow=block;curved=0;rounded=0;endFill=1;jumpStyle=arc;align=center;sourcePerimeterSpacing=0;dashed=1;" parent="1" edge="1">
          <mxGeometry x="-0.6766" width="80" relative="1" as="geometry">
            <mxPoint x="660.5" y="1731.45" as="sourcePoint" />
            <mxPoint x="274" y="1731.45" as="targetPoint" />
            <mxPoint as="offset" />
          </mxGeometry>
        </mxCell>
        <mxCell id="7v1A9Dm_qD9iuDS3kqmu-104" value="options" style="html=1;verticalAlign=bottom;endArrow=block;curved=0;rounded=0;" parent="1" edge="1">
          <mxGeometry width="80" relative="1" as="geometry">
            <mxPoint x="261" y="1480" as="sourcePoint" />
            <mxPoint x="141" y="1480" as="targetPoint" />
          </mxGeometry>
        </mxCell>
        <mxCell id="7v1A9Dm_qD9iuDS3kqmu-105" value="actions" style="html=1;verticalAlign=bottom;endArrow=block;curved=0;rounded=0;dashed=1;" parent="1" edge="1">
          <mxGeometry width="80" relative="1" as="geometry">
            <mxPoint x="141" y="1500" as="sourcePoint" />
            <mxPoint x="261" y="1500" as="targetPoint" />
            <mxPoint as="offset" />
          </mxGeometry>
        </mxCell>
        <mxCell id="7v1A9Dm_qD9iuDS3kqmu-106" value="&lt;span style=&quot;font-size: 11px;&quot;&gt;[ admin loop ]&lt;/span&gt;" style="text;html=1;align=center;verticalAlign=middle;whiteSpace=wrap;rounded=0;rotation=-90;fillColor=#d5e8d4;strokeColor=#82b366;fontSize=11;" parent="1" vertex="1">
          <mxGeometry x="47.5" y="1473.25" width="78" height="20.5" as="geometry" />
        </mxCell>
        <mxCell id="7v1A9Dm_qD9iuDS3kqmu-107" value="&lt;font style=&quot;font-size: 11px;&quot;&gt;[ fail ]&lt;/font&gt;" style="text;html=1;align=center;verticalAlign=middle;whiteSpace=wrap;rounded=0;fillColor=#f8cecc;strokeColor=#b85450;rotation=-90;" parent="1" vertex="1">
          <mxGeometry x="66.5" y="896.5" width="40" height="20" as="geometry" />
        </mxCell>
        <mxCell id="7v1A9Dm_qD9iuDS3kqmu-108" value="finish" style="html=1;verticalAlign=bottom;endArrow=block;curved=0;rounded=0;endFill=1;" parent="1" edge="1">
          <mxGeometry width="80" relative="1" as="geometry">
            <mxPoint x="141" y="1570" as="sourcePoint" />
            <mxPoint x="261" y="1570" as="targetPoint" />
          </mxGeometry>
        </mxCell>
        <mxCell id="7v1A9Dm_qD9iuDS3kqmu-109" value="ok" style="html=1;verticalAlign=bottom;endArrow=block;curved=0;rounded=0;endFill=1;dashed=1;" parent="1" edge="1">
          <mxGeometry width="80" relative="1" as="geometry">
            <mxPoint x="541" y="1879" as="sourcePoint" />
            <mxPoint x="661" y="1879" as="targetPoint" />
          </mxGeometry>
        </mxCell>
        <mxCell id="7v1A9Dm_qD9iuDS3kqmu-110" value="get decrypted data" style="html=1;verticalAlign=bottom;endArrow=block;curved=0;rounded=0;endFill=1;jumpStyle=arc;align=center;sourcePerimeterSpacing=0;" parent="1" edge="1">
          <mxGeometry x="0.6766" width="80" relative="1" as="geometry">
            <mxPoint x="274" y="1590" as="sourcePoint" />
            <mxPoint x="660.5" y="1590" as="targetPoint" />
            <mxPoint as="offset" />
          </mxGeometry>
        </mxCell>
        <mxCell id="7v1A9Dm_qD9iuDS3kqmu-114" value=":disk:" style="html=1;verticalAlign=bottom;endArrow=block;curved=0;rounded=0;endFill=1;jumpStyle=arc;align=center;sourcePerimeterSpacing=0;" parent="1" edge="1">
          <mxGeometry x="0.6766" width="80" relative="1" as="geometry">
            <mxPoint x="274" y="1770" as="sourcePoint" />
            <mxPoint x="660.5" y="1770" as="targetPoint" />
            <mxPoint as="offset" />
          </mxGeometry>
        </mxCell>
        <mxCell id="7v1A9Dm_qD9iuDS3kqmu-118" value="create new" style="html=1;verticalAlign=bottom;endArrow=block;curved=0;rounded=0;" parent="1" edge="1">
          <mxGeometry width="80" relative="1" as="geometry">
            <mxPoint x="660" y="1860" as="sourcePoint" />
            <mxPoint x="540" y="1860" as="targetPoint" />
            <mxPoint as="offset" />
          </mxGeometry>
        </mxCell>
        <mxCell id="7v1A9Dm_qD9iuDS3kqmu-123" value="close" style="html=1;verticalAlign=bottom;endArrow=open;curved=0;rounded=0;endFill=0;jumpStyle=none;align=center;sourcePerimeterSpacing=0;" parent="1" edge="1">
          <mxGeometry x="0.502" width="80" relative="1" as="geometry">
            <mxPoint x="273" y="380" as="sourcePoint" />
            <mxPoint x="526" y="380" as="targetPoint" />
            <mxPoint as="offset" />
          </mxGeometry>
        </mxCell>
        <mxCell id="7v1A9Dm_qD9iuDS3kqmu-124" value="DB driver&lt;div&gt;&lt;span style=&quot;background-color: initial;&quot;&gt;[ on-disk ]&lt;/span&gt;&lt;/div&gt;" style="shape=umlLifeline;perimeter=lifelinePerimeter;whiteSpace=wrap;html=1;container=1;dropTarget=0;collapsible=0;recursiveResize=0;outlineConnect=0;portConstraint=eastwest;newEdgeStyle={&quot;curved&quot;:0,&quot;rounded&quot;:0};fillColor=#fff2cc;strokeColor=#d6b656;" parent="1" vertex="1">
          <mxGeometry x="483" y="1790" width="100" height="270" as="geometry" />
        </mxCell>
        <mxCell id="7v1A9Dm_qD9iuDS3kqmu-125" value="" style="html=1;points=[[0,0,0,0,5],[0,1,0,0,-5],[1,0,0,0,5],[1,1,0,0,-5]];perimeter=orthogonalPerimeter;outlineConnect=0;targetShapes=umlLifeline;portConstraint=eastwest;newEdgeStyle={&quot;curved&quot;:0,&quot;rounded&quot;:0};fillColor=#fff2cc;strokeColor=#d6b656;" parent="7v1A9Dm_qD9iuDS3kqmu-124" vertex="1">
          <mxGeometry x="45" y="60" width="10" height="120" as="geometry" />
        </mxCell>
        <mxCell id="7v1A9Dm_qD9iuDS3kqmu-128" value="ok" style="html=1;verticalAlign=bottom;endArrow=block;curved=0;rounded=0;endFill=1;jumpStyle=arc;align=center;sourcePerimeterSpacing=0;dashed=1;" parent="1" edge="1">
          <mxGeometry x="-0.6766" width="80" relative="1" as="geometry">
            <mxPoint x="659.5" y="1920" as="sourcePoint" />
            <mxPoint x="273" y="1920" as="targetPoint" />
            <mxPoint as="offset" />
          </mxGeometry>
        </mxCell>
        <mxCell id="7v1A9Dm_qD9iuDS3kqmu-129" value="ok" style="html=1;verticalAlign=bottom;endArrow=block;curved=0;rounded=0;endFill=1;dashed=1;" parent="1" edge="1">
          <mxGeometry width="80" relative="1" as="geometry">
            <mxPoint x="659" y="340" as="sourcePoint" />
            <mxPoint x="539" y="340" as="targetPoint" />
          </mxGeometry>
        </mxCell>
        <mxCell id="7v1A9Dm_qD9iuDS3kqmu-130" value="ok" style="html=1;verticalAlign=bottom;endArrow=block;curved=0;rounded=0;endFill=1;jumpStyle=arc;align=center;sourcePerimeterSpacing=0;dashed=1;" parent="1" edge="1">
          <mxGeometry x="-0.499" width="80" relative="1" as="geometry">
            <mxPoint x="526" y="340" as="sourcePoint" />
            <mxPoint x="273" y="340" as="targetPoint" />
            <mxPoint as="offset" />
          </mxGeometry>
        </mxCell>
        <mxCell id="7v1A9Dm_qD9iuDS3kqmu-121" value="" style="shape=umlDestroy;whiteSpace=wrap;html=1;strokeWidth=3;targetShapes=umlLifeline;fillColor=#fff2cc;strokeColor=#d6b656;" parent="1" vertex="1">
          <mxGeometry x="518" y="400" width="30" height="30" as="geometry" />
        </mxCell>
        <mxCell id="7v1A9Dm_qD9iuDS3kqmu-138" value="close" style="html=1;verticalAlign=bottom;endArrow=open;curved=0;rounded=0;endFill=0;jumpStyle=none;align=center;sourcePerimeterSpacing=0;" parent="1" edge="1">
          <mxGeometry x="0.502" width="80" relative="1" as="geometry">
            <mxPoint x="274" y="1960" as="sourcePoint" />
            <mxPoint x="527" y="1960" as="targetPoint" />
            <mxPoint as="offset" />
          </mxGeometry>
        </mxCell>
        <mxCell id="7v1A9Dm_qD9iuDS3kqmu-127" value="" style="shape=umlDestroy;whiteSpace=wrap;html=1;strokeWidth=3;targetShapes=umlLifeline;fillColor=#fff2cc;strokeColor=#d6b656;" parent="1" vertex="1">
          <mxGeometry x="518" y="2050" width="30" height="30" as="geometry" />
        </mxCell>
        <mxCell id="7v1A9Dm_qD9iuDS3kqmu-140" value="close" style="html=1;verticalAlign=bottom;endArrow=open;curved=0;rounded=0;endFill=0;jumpStyle=arc;align=center;sourcePerimeterSpacing=0;" parent="1" edge="1">
          <mxGeometry x="0.6766" width="80" relative="1" as="geometry">
            <mxPoint x="274" y="1980" as="sourcePoint" />
            <mxPoint x="660.5" y="1980" as="targetPoint" />
            <mxPoint as="offset" />
          </mxGeometry>
        </mxCell>
        <mxCell id="7v1A9Dm_qD9iuDS3kqmu-141" value="" style="shape=umlDestroy;whiteSpace=wrap;html=1;strokeWidth=3;targetShapes=umlLifeline;fillColor=#e3c800;strokeColor=#B09500;fontColor=#000000;" parent="1" vertex="1">
          <mxGeometry x="652" y="2050" width="30" height="30" as="geometry" />
        </mxCell>
        <mxCell id="7v1A9Dm_qD9iuDS3kqmu-142" value="ok" style="html=1;verticalAlign=bottom;endArrow=block;curved=0;rounded=0;dashed=1;" parent="1" edge="1">
          <mxGeometry width="80" relative="1" as="geometry">
            <mxPoint x="261" y="2020" as="sourcePoint" />
            <mxPoint x="141" y="2020" as="targetPoint" />
          </mxGeometry>
        </mxCell>
        <mxCell id="7v1A9Dm_qD9iuDS3kqmu-143" value="destroy" style="html=1;verticalAlign=bottom;endArrow=open;curved=0;rounded=0;endFill=0;" parent="1" edge="1">
          <mxGeometry width="80" relative="1" as="geometry">
            <mxPoint x="272" y="2000" as="sourcePoint" />
            <mxPoint x="392" y="2000" as="targetPoint" />
          </mxGeometry>
        </mxCell>
        <mxCell id="7v1A9Dm_qD9iuDS3kqmu-145" value="" style="shape=umlDestroy;whiteSpace=wrap;html=1;strokeWidth=3;targetShapes=umlLifeline;fillColor=#dae8fc;strokeColor=#6c8ebf;" parent="1" vertex="1">
          <mxGeometry x="384.5" y="2050" width="30" height="30" as="geometry" />
        </mxCell>
        <mxCell id="7v1A9Dm_qD9iuDS3kqmu-146" value="" style="shape=umlDestroy;whiteSpace=wrap;html=1;strokeWidth=3;targetShapes=umlLifeline;" parent="1" vertex="1">
          <mxGeometry x="122.5" y="2050" width="30" height="30" as="geometry" />
        </mxCell>
        <mxCell id="7v1A9Dm_qD9iuDS3kqmu-147" value="" style="shape=umlDestroy;whiteSpace=wrap;html=1;strokeWidth=3;targetShapes=umlLifeline;fillColor=#d5e8d4;strokeColor=#82b366;" parent="1" vertex="1">
          <mxGeometry x="252" y="2050" width="30" height="30" as="geometry" />
        </mxCell>
      </root>
    </mxGraphModel>
  </diagram>
</mxfile>
